<?xml version="1.0" encoding="UTF-8"?>
<svg id="Camada_1" xmlns="http://www.w3.org/2000/svg" version="1.1" viewBox="55 10 470 165">
  <!-- Generator: Adobe Illustrator 29.8.2, SVG Export Plug-In . SVG Version: 2.1.1 Build 3)  -->
  <defs>
    <style>
      .st0 {
        fill: #ec632c;
      }

      .st1 {
        fill: #d9e28d;
      }
    </style>
  </defs>
  <path class="st0" d="M404,43.5c-15.7,13-30.9,26.6-45.1,41.2,7.8,14.3,17.8,27.2,26.2,41s3.9,6.1,4.1,6.8.5,1-.3,1.6l-34.4,5.4-24.1-43.1-4.2,37.9-31.4,1.8c2.5-15.9,5.4-31.8,8-47.7,2.5-15.3,5.9-30.2,5.3-45.9s-.9-3.3-.6-5.1l36.2-6.6-9,41.5,37.4-35.8c10.9-1.3,21.7,2,32.6,2.1-.2,1.6-.3,3.1-.6,4.8Z"/>
  <path class="st0" d="M150.1,29.7l-30.2,94.5c.8.6,15.3,0,17.2,0,3.6-.2,13.9-2.1,16.6-.9s4.1,4.7,6.7,5.5l-.9,23.1-86.6,10.2,38.7-126.3,38.5-6.1Z"/>
  <path class="st1" d="M404.6,38.7c0,0,.8-.2.9-.9l.9-12.6,1.4-1,73.9-1.2v3.3s-9.1,25.5-9.1,25.5l-36.6,1.3-2.8,10.7.8,1.2c7.8-.3,15.7-.2,23.5-.5s5.3-1,8.4-.6,1.1-.3.8.8c-2.2,9.2-6.8,18.3-6.6,28.1h-32.9s-5.1,35.7-5.1,35.7c-.3,1.4-11.6,1.4-13.6,1.6-4.8.5-9.6,1.3-14.4,1.8-2.1-.3-5.2-7.1-6.8-8.8,5.7-26.5,12.3-52.9,16.7-79.6.3-1.7.4-3.2.6-4.8Z"/>
  <path class="st0" d="M207.9,47.3c2.2-.2,2.7.2,4.5,1.2,4.4,2.4,15.5,9.7,19.1,12.9s1.8,1.9,2.1,2.7c1.2,3.6-2.5,19.4-3.5,24.2-2.7,13.6-6.1,27-10.4,40.2-9.8,4.7-20,9.1-30.6,11.9-12.9-5.3-27.4-11.7-34.8-24.2,3-18.7,7.4-37.2,14.4-54.8,6.7-2.9,13.5-6.2,20.3-8.6s14.2-5,18.7-5.4ZM185.2,110.1c.2.1,3.7,1.2,3.9,1.3,2.3.5,10.9-2.1,12.1-3.9s1.9-5.4,2.4-7.3c2-7.3,3.2-15.2,4.3-22.6-2.3-1.9-6.1-4.9-9.2-4.6s-7.9,3.7-11.1,4.3c-1.5,5.4-3.3,10.7-4.6,16.2s-2.2,8.8-2.2,11.7,1.8,2.3,3.2,3.3.9,1.4,1.1,1.5Z"/>
  <path class="st0" d="M276.8,83.2l.5-8c-.4-1.6-4.3-3.8-6.1-3.3l-11.2,4.8-6.1,30.9c.2,1.8,9.3,7.1,11.1,6.9,3.9-.3,9.2-7.6,9.4-11.4l21.7,3.3c1.6,1-1.3,5.1-1.8,6.6-3,8.6-3.8,17.5-13,22.5s-14.6,6-16.8,6c-4.2,0-21.2-7.2-25.2-9.6s-7-6-10.4-9.5c.8-10.3,2.9-20.5,4.9-30.5s2.6-12.7,4-18.9,2.7-11.5,4.3-13.2c5.5-2.9,11.1-6,16.8-8.5s13-5.7,15.8-5.9,13,4.8,15.1,5.9,9.8,4.9,11.3,6.8c2.7,3.4-.9,16.3-.5,21.1l-23.9,4.2Z"/>
  <polygon class="st1" points="510.7 62.8 497.4 136.2 461.9 139.5 479.7 65.2 480.9 62.8 510.7 62.8"/>
  <path class="st1" d="M482.4,54.4l5.8-21.6,34-3c1.5,1.5-8.4,20.9-7.8,24.7h-32Z"/>
</svg>