<?xml version="1.0" encoding="UTF-8"?>
<svg id="Camada_1" data-name="Camada 1" xmlns="http://www.w3.org/2000/svg" viewBox="0 0 280 297.9">
  <defs>
    <style>
      .cls-1 {
        fill: #ec632c;
      }
    </style>
  </defs>
  <path class="cls-1" d="M135.16,12.53c3.84-1.05,7.44,1.21,10.88,2.57,34.42,13.59,68.23,32.25,102.83,45.86,4.43,2.67,6.84,6.43,7.33,11.62,2.94,30.53.23,84.82-10.33,113.46-14.07,38.15-45.93,75.46-83.31,92.29-4.07,1.83-20.84,7.3-24.68,7.33-2.95.02-14.95-3.58-18.28-4.76-39.84-14.1-75.74-55.43-90.06-94.53-13.46-36.75-9.25-77.27-9.97-115.76.27-2.53,1.67-5.76,3.45-7.52,2.48-2.46,18.98-9.32,23.53-11.39,29.36-13.38,59.5-25.18,88.59-39.16ZM239.95,74.35l-98.54-43.65c-4.63-1.75-8.5.79-12.69,2.35l-93.16,41.56-1.04,2.95c.41,38.94-3.39,77.51,13.3,113.5,13.37,28.85,38.5,57.64,67.93,70.76,3.97,1.77,16.82,7.03,20.4,7.63,2.66.44,19.61-5.73,23.19-7.31,33.71-14.85,64.6-53.55,75.18-88.44,7.14-23.53,8.85-69.15,6.7-94.12-.13-1.53-.18-4.14-1.27-5.21Z"/>
  <path class="cls-1" d="M135.14,61.4c12.6-1.51,28.46,8.92,32.21,21.16,1.76,5.75,2.79,18.9,1.73,24.73-.59,3.2-3.78,5.84-3.77,7.19s1.87,3.05,2.33,4.69c3.54,12.67,1.82,25.39-7.76,34.78-2.57,2.52-12.44,7.71-13.03,8.92-3.97,8.21,6.34,38-9.05,38.89-14.72.85-7.18-31.89-9.56-39.22-.49-1.52-6.61-3.7-8.74-5.23-7.59-5.46-13.85-16.51-14.09-25.89-.13-5.16,3.73-11.96,4.02-15.99.18-2.51-3.75-8.9-4.02-13.86-1.09-19.42,9.3-37.74,29.74-40.18ZM134.11,74.35c-4.15.84-10.86,6.29-12.91,10.04s-4.47,17.43-2.33,20.69c1.66,2.53,7.19-1.58,9.74-2.31,7.65-2.18,10.87-2.25,18.53-.01,3.77,1.1,9.4,6.82,10.24-.16,1.63-13.55-7.32-31.48-23.28-28.25ZM137.18,114.24c-19.49,1.02-20.32,26.91-7.75,31.14,3.76,1.27,15.18.78,18.42-1.44,12.84-8.82,6.15-30.58-10.67-29.7Z"/>
</svg>